<svg xmlns="http://www.w3.org/2000/svg" width="18" height="18" viewBox="0 0 18 18"><g><g><path fill="#fff" d="M7.142 16.2c0 .99-.803 1.8-1.785 1.8-.983 0-1.777-.81-1.777-1.8s.794-1.8 1.777-1.8c.982 0 1.785.81 1.785 1.8zm8.929 0a1.8 1.8 0 0 1-1.786 1.8c-.982 0-1.777-.81-1.777-1.8s.795-1.8 1.777-1.8c.982 0 1.786.81 1.786 1.8zM5.73 11.7h10.34v1.8H15v.498H6V13.5h-.643a1.8 1.8 0 0 1-1.563-2.664L5 8.629 1.785 1.796H0v-1.8h2.92l.84 1.8.24.512v-.31h12V2.6l.438-.803h.009L18 2.661l-3.447 6.31a1.775 1.775 0 0 1-1.563.927H6.34l-.804 1.467-.027.11c0 .126.108.224.224.224zm.876-3.845l.115.243h6.268l2.246-4.1H4.796z"/></g></g></svg>