<svg xmlns="http://www.w3.org/2000/svg" width="20" height="20" viewBox="0 0 20 20"><g><g><path fill="#fff" d="M20.004 20.004h-1.668c-.833-3.835-4.25-6.668-8.336-6.668-4.085 0-7.504 2.833-8.338 6.668H-.005c.667-3.501 3.168-6.42 6.503-7.67A6.58 6.58 0 0 1 3.33 6.665c0-3.668 3.002-6.67 6.67-6.67s6.67 3.002 6.67 6.67a6.58 6.58 0 0 1-3.169 5.669c3.336 1.167 5.837 4.086 6.503 7.67zM10 11.667c2.751 0 5.002-2.251 5.002-5.002A5.016 5.016 0 0 0 10 1.663a5.016 5.016 0 0 0-5.002 5.002c0 2.75 2.25 5.002 5.002 5.002z"/></g></g></svg>