<svg xmlns="http://www.w3.org/2000/svg" width="50" height="37" viewBox="0 0 50 37"><g><g><path fill="#445dd8" d="M50 5.589v16.16c0 3.083-2.47 5.592-5.507 5.592h-3.01c-.59 0-1.069-.486-1.069-1.085 0-.6.478-1.085 1.068-1.085h3.011c1.859 0 3.37-1.536 3.37-3.423V18.55H38.96v12.86c0 3.083-2.47 5.592-5.506 5.592H5.506C2.47 37.002 0 34.493 0 31.41V15.25c0-3.084 2.47-5.594 5.506-5.594h42.357V5.588c0-1.887-1.511-3.423-3.37-3.423H16.546c-1.858 0-3.37 1.536-3.37 3.423v1.395c0 .6-.478 1.085-1.068 1.085-.59 0-1.068-.486-1.068-1.085V5.588c0-3.083 2.47-5.593 5.506-5.593h27.947C47.53-.005 50 2.505 50 5.59zm-8.13 10.603l4.298-4.366h-2.252l-4.28 4.35c-.084.085-.18.153-.282.203h2.37c.041-.067.09-.13.147-.187zm-.976-4.366h-3.09a5.635 5.635 0 0 1 1.003 2.121zm-4.07 3.424c0-1.888-1.512-3.424-3.37-3.424H5.505c-1.858 0-3.37 1.536-3.37 3.424v16.16c0 1.887 1.512 3.422 3.37 3.422h27.947c1.859 0 3.37-1.535 3.37-3.422zm10.706 1.13v-2.868l-2.822 2.867zM15.357 26.89v4.477c0 .6-.478 1.086-1.068 1.086H5.542c-.59 0-1.068-.485-1.068-1.086v-7.474c0-.6.478-1.085 1.068-1.085h5.641c.59 0 1.069.486 1.069 1.085s-.479 1.085-1.069 1.085H6.61v5.305h6.61V26.89c0-.599.479-1.084 1.069-1.084s1.068.485 1.068 1.084zm18.743-.635c0 .6-.478 1.085-1.068 1.085H20.537c-.59 0-1.07-.486-1.07-1.085 0-.6.48-1.085 1.07-1.085h12.495c.59 0 1.068.486 1.068 1.085zm0 5.112c0 .6-.478 1.086-1.068 1.086H20.537c-.59 0-1.07-.485-1.07-1.086 0-.6.48-1.084 1.07-1.084h12.495c.59 0 1.068.485 1.068 1.084z"/></g></g></svg>