<svg xmlns="http://www.w3.org/2000/svg" width="50" height="50" viewBox="0 0 50 50"><g><g><path fill="#445dd8" d="M49.997 25.251c0 13.646-11.213 24.747-24.997 24.747S.003 38.898.003 25.251C.003 11.606 11.216.504 25 .504c4.066 0 8.102.99 11.674 2.86.537.28.743.941.458 1.472a1.109 1.109 0 0 1-1.489.455A23.018 23.018 0 0 0 25 2.685c-12.57 0-22.795 10.123-22.795 22.566C2.205 37.695 12.431 47.82 25 47.82S47.795 37.695 47.795 25.25c0-.602.492-1.09 1.1-1.09.609 0 1.102.488 1.102 1.09zM40.73 8.01l-.15-6.896c-.014-.602.47-1.101 1.077-1.114a1.098 1.098 0 0 1 1.125 1.067l.173 7.987c.006.288-.104.567-.306.776-.201.21-.479.33-.772.336l-8.066.172h-.024a1.096 1.096 0 0 1-1.1-1.067c-.013-.601.469-1.1 1.077-1.113zM26.923 32.834v-3.718h-6.62c-.416 0-.796-.232-.984-.599a1.084 1.084 0 0 1 .097-1.14l7.723-10.356c.282-.379.779-.535 1.23-.388.45.147.757.565.757 1.036v9.266h2.634c.609 0 1.102.489 1.102 1.091s-.493 1.09-1.102 1.09h-2.634v3.718c0 .603-.493 1.091-1.102 1.091a1.096 1.096 0 0 1-1.101-1.09zm0-5.899v-5.954l-4.44 5.954zm-11.35-3.16c1.027-1.03 1-2.348.633-3.24-.451-1.093-1.418-1.757-2.586-1.775h-.062c-2.07 0-3.756 1.667-3.756 3.718 0 .602-.493 1.09-1.1 1.09a1.096 1.096 0 0 1-1.102-1.09c0-3.253 2.673-5.9 5.958-5.9l.098.001c2.047.033 3.805 1.233 4.588 3.132.809 1.959.386 4.104-1.104 5.597l-5.804 5.82h7.08c.608 0 1.1.487 1.1 1.09 0 .602-.492 1.09-1.1 1.09H8.7c-.444 0-.845-.264-1.016-.67a1.083 1.083 0 0 1 .232-1.186zm24.624 9.06v-2.093c0-.913-.75-1.656-1.672-1.656h-.057c-.923 0-1.673.743-1.673 1.656v2.092c0 .603-.493 1.09-1.101 1.09-.609 0-1.1-.487-1.1-1.09v-10.81c0-.602.491-1.09 1.1-1.09.608 0 1.101.488 1.101 1.09v5.257a3.88 3.88 0 0 1 1.673-.376h.057c2.136 0 3.874 1.72 3.874 3.837v2.092c0 .603-.492 1.09-1.1 1.09a1.096 1.096 0 0 1-1.102-1.09z"/></g></g></svg>