<svg xmlns="http://www.w3.org/2000/svg" width="41" height="50" viewBox="0 0 41 50"><g><g><path fill="#445dd8" d="M40.999 14.148a.996.996 0 0 1-.363.77L24.51 28.078a.975.975 0 0 1-1.041.125.992.992 0 0 1-.56-.893v-8.128H6.954a.986.986 0 0 1-.981-.99v-8.088c0-.547.439-.99.981-.99h9.62c.542 0 .981.443.981.99 0 .548-.44.99-.982.99H7.935v6.107h15.957c.542 0 .982.443.982.99v7.043l13.583-11.086L24.874 3.062v7.043c0 .547-.44.99-.982.99a.985.985 0 0 1-.982-.99V.987c0-.382.218-.73.559-.894a.977.977 0 0 1 1.04.124l16.126 13.161c.23.188.364.471.364.77zm-5.97 17.659v8.087c0 .546-.44.99-.982.99H18.09v8.128a.982.982 0 0 1-1.6.77L.365 36.62a.994.994 0 0 1 0-1.54L16.49 21.92a.976.976 0 0 1 1.041-.125.99.99 0 0 1 .56.894v9.118c0 .547-.44.99-.983.99a.986.986 0 0 1-.982-.99v-7.043L2.543 35.85l13.583 11.086v-7.042c0-.548.44-.991.982-.991h15.957v-6.106H22.07a.986.986 0 0 1-.982-.99c0-.547.44-.99.982-.99h11.976c.542 0 .982.443.982.99z"/></g></g></svg>